<svg width="24" height="24" viewBox="0 0 24 24" fill="none" xmlns="http://www.w3.org/2000/svg">
<path fill-rule="evenodd" clip-rule="evenodd" d="M16.0002 19.9877H18.9902L19.0002 11.6117L11.9982 4.41975L5.0062 11.5707L5.0002 19.9877H8.0002V12.9877C8.0002 12.4347 8.4472 11.9877 9.0002 11.9877H15.0002C15.5522 11.9877 16.0002 12.4347 16.0002 12.9877V19.9877ZM14.0002 19.9877H10.0002V13.9877H14.0002V19.9877ZM20.4242 10.1728L12.7152 2.28875C12.3382 1.90375 11.6622 1.90375 11.2852 2.28875L3.5752 10.1737C3.2102 10.5487 3.0002 11.0727 3.0002 11.6117V19.9877C3.0002 21.0907 3.8472 21.9877 4.8882 21.9877H9.0002H15.0002H19.1112C20.1522 21.9877 21.0002 21.0907 21.0002 19.9877V11.6117C21.0002 11.0727 20.7902 10.5488 20.4242 10.1728V10.1728Z" fill="white"/>
</svg>
