<svg width="72" height="72" viewBox="0 0 72 72" fill="none" xmlns="http://www.w3.org/2000/svg">
<path d="M65.443 41.1428C65.443 41.0142 65.3144 40.7571 65.1858 40.6285C65.0573 40.4999 64.9287 40.2428 64.8001 40.1142L64.6716 39.9857C64.543 39.8571 64.2859 39.7285 64.1573 39.5999L50.6573 33.5571C50.0144 33.2999 49.243 33.2999 48.6001 33.5571L36.0001 39.2142L23.5287 33.6857C22.8859 33.4285 22.1144 33.4285 21.4716 33.6857L7.97157 39.5999C7.71442 39.7285 7.58585 39.8571 7.45728 39.9857L7.32871 40.1142C7.20014 40.2428 7.07157 40.3714 6.943 40.6285C6.81443 40.7571 6.81442 41.0142 6.68585 41.1428V41.2714C6.42871 41.5285 6.42871 41.7857 6.42871 42.0428V57.0857V57.2142C6.42871 57.3428 6.42871 57.4714 6.42871 57.4714C6.42871 57.5999 6.42871 57.5999 6.55728 57.7285C6.55728 57.8571 6.55728 57.8571 6.68585 57.9857C6.68585 58.1142 6.81443 58.1142 6.81443 58.2428C6.81443 58.3714 6.943 58.3714 6.943 58.4999C6.943 58.6285 7.07157 58.6285 7.07157 58.7571C7.07157 58.8857 7.20014 58.8857 7.20014 59.0142C7.20014 59.0142 7.32871 59.1428 7.45728 59.1428L7.58585 59.2714C7.71443 59.2714 7.71442 59.3999 7.843 59.3999C7.843 59.3999 7.97157 59.3999 7.97157 59.5285L21.4716 65.5714C21.6001 65.5714 21.7287 65.6999 21.8573 65.6999C21.9859 65.6999 22.243 65.6999 22.3716 65.6999C22.5001 65.6999 22.7573 65.6999 22.8859 65.6999C23.0144 65.6999 23.143 65.5714 23.2716 65.5714L35.743 60.0428L48.2144 65.5714C48.343 65.5714 48.4716 65.6999 48.6001 65.6999C48.7287 65.6999 48.9859 65.6999 49.1144 65.6999C49.243 65.6999 49.5001 65.6999 49.6287 65.6999C49.7573 65.6999 49.8859 65.5714 50.0144 65.5714L63.5144 59.5285C63.5144 59.5285 63.643 59.5285 63.643 59.3999C63.7716 59.3999 63.9001 59.2714 63.9001 59.2714C64.0287 59.2714 64.0287 59.1428 64.0287 59.1428C64.1573 59.1428 64.1573 59.0142 64.2858 59.0142C64.2858 59.0142 64.4144 58.8857 64.4144 58.7571C64.4144 58.6285 64.543 58.6285 64.543 58.4999C64.543 58.3714 64.6716 58.3714 64.6716 58.2428C64.6716 58.1142 64.8001 58.1142 64.8001 57.9857C64.8001 57.8571 64.8001 57.8571 64.9287 57.7285C64.9287 57.5999 64.9287 57.5999 65.0573 57.4714C65.0573 57.3428 65.0573 57.2142 65.0573 57.2142V57.0857V42.0428C65.0573 41.7857 65.0573 41.6571 64.9287 41.3999C65.443 41.2714 65.443 41.2714 65.443 41.1428ZM11.5716 45.8999L19.9287 49.6285V59.0142L11.5716 55.2857V45.8999ZM25.0716 49.6285L33.4287 45.8999V55.2857L25.0716 59.0142V49.6285ZM38.5716 45.8999L46.9287 49.6285V59.0142L38.5716 55.2857V45.8999ZM52.0716 49.6285L60.4287 45.8999V55.2857L52.0716 59.0142V49.6285ZM49.5001 38.8285L56.7001 42.0428L49.5001 45.2571L42.3001 42.0428L49.5001 38.8285ZM22.5001 38.8285L29.7001 42.0428L22.5001 45.2571L15.3001 42.0428L22.5001 38.8285ZM6.68585 21.9857C6.17157 20.6999 6.68585 19.1571 7.97157 18.6428L34.9716 6.68566C35.6144 6.42851 36.3858 6.42851 37.0287 6.68566L64.0287 18.6428C65.3144 19.1571 65.9573 20.6999 65.3144 21.9857C64.9287 22.8857 63.9001 23.5285 63.0001 23.5285C62.6144 23.5285 62.3573 23.3999 61.9716 23.2714L56.5716 20.9571V29.0571C56.5716 30.4714 55.4144 31.6285 54.0001 31.6285C52.5858 31.6285 51.4287 30.4714 51.4287 29.0571V18.7714L36.0001 11.8285L20.5716 18.6428V28.9285C20.5716 30.3428 19.4144 31.4999 18.0001 31.4999C16.5859 31.4999 15.4287 30.3428 15.4287 28.9285V20.8285L10.0287 23.2714C8.743 23.9142 7.20014 23.3999 6.68585 21.9857ZM45.0001 20.4428C46.4144 20.4428 47.5716 21.5999 47.5716 23.0142C47.5716 24.4285 46.4144 25.5857 45.0001 25.5857H28.0287C26.6144 25.5857 25.4573 24.4285 25.4573 23.0142C25.4573 21.5999 26.6144 20.4428 28.0287 20.4428H45.0001Z" fill="#FF5A00"/>
</svg>
