<svg width="24" height="24" viewBox="0 0 24 24" fill="none" xmlns="http://www.w3.org/2000/svg">
<path d="M21.8143 13.7143C21.8143 13.6714 21.7714 13.5857 21.7286 13.5429C21.6857 13.5 21.6429 13.4143 21.6 13.3715L21.5571 13.3286C21.5143 13.2857 21.4286 13.2429 21.3857 13.2L16.8857 11.1857C16.6714 11.1 16.4143 11.1 16.2 11.1857L12 13.0715L7.84286 11.2286C7.62857 11.1429 7.37143 11.1429 7.15715 11.2286L2.65715 13.2C2.57143 13.2429 2.52857 13.2857 2.48572 13.3286L2.44286 13.3715C2.4 13.4143 2.35715 13.4572 2.31429 13.5429C2.27143 13.5857 2.27143 13.6714 2.22857 13.7143V13.7572C2.14286 13.8429 2.14286 13.9286 2.14286 14.0143V19.0286V19.0714C2.14286 19.1143 2.14286 19.1572 2.14286 19.1572C2.14286 19.2 2.14286 19.2 2.18572 19.2429C2.18572 19.2857 2.18572 19.2857 2.22857 19.3286C2.22857 19.3714 2.27143 19.3715 2.27143 19.4143C2.27143 19.4572 2.31429 19.4572 2.31429 19.5C2.31429 19.5429 2.35715 19.5429 2.35715 19.5857C2.35715 19.6286 2.4 19.6286 2.4 19.6715C2.4 19.6715 2.44286 19.7143 2.48572 19.7143L2.52857 19.7572C2.57143 19.7572 2.57143 19.8 2.61429 19.8C2.61429 19.8 2.65715 19.8 2.65715 19.8429L7.15715 21.8572C7.2 21.8572 7.24286 21.9 7.28572 21.9C7.32857 21.9 7.41429 21.9 7.45715 21.9C7.5 21.9 7.58572 21.9 7.62857 21.9C7.67143 21.9 7.71429 21.8572 7.75715 21.8572L11.9143 20.0143L16.0714 21.8572C16.1143 21.8572 16.1571 21.9 16.2 21.9C16.2429 21.9 16.3286 21.9 16.3714 21.9C16.4143 21.9 16.5 21.9 16.5429 21.9C16.5857 21.9 16.6286 21.8572 16.6714 21.8572L21.1714 19.8429C21.1714 19.8429 21.2143 19.8429 21.2143 19.8C21.2571 19.8 21.3 19.7572 21.3 19.7572C21.3429 19.7572 21.3429 19.7143 21.3429 19.7143C21.3857 19.7143 21.3857 19.6715 21.4286 19.6715C21.4286 19.6715 21.4714 19.6286 21.4714 19.5857C21.4714 19.5429 21.5143 19.5429 21.5143 19.5C21.5143 19.4572 21.5571 19.4572 21.5571 19.4143C21.5571 19.3715 21.6 19.3714 21.6 19.3286C21.6 19.2857 21.6 19.2857 21.6429 19.2429C21.6429 19.2 21.6429 19.2 21.6857 19.1572C21.6857 19.1143 21.6857 19.0714 21.6857 19.0714V19.0286V14.0143C21.6857 13.9286 21.6857 13.8857 21.6429 13.8C21.8143 13.7572 21.8143 13.7572 21.8143 13.7143ZM3.85715 15.3L6.64286 16.5429V19.6715L3.85715 18.4286V15.3ZM8.35715 16.5429L11.1429 15.3V18.4286L8.35715 19.6715V16.5429ZM12.8571 15.3L15.6429 16.5429V19.6715L12.8571 18.4286V15.3ZM17.3571 16.5429L20.1429 15.3V18.4286L17.3571 19.6715V16.5429ZM16.5 12.9429L18.9 14.0143L16.5 15.0857L14.1 14.0143L16.5 12.9429ZM7.5 12.9429L9.9 14.0143L7.5 15.0857L5.1 14.0143L7.5 12.9429ZM2.22857 7.32859C2.05715 6.90002 2.22857 6.38574 2.65715 6.21431L11.6571 2.22859C11.8714 2.14288 12.1286 2.14288 12.3429 2.22859L21.3429 6.21431C21.7714 6.38574 21.9857 6.90002 21.7714 7.32859C21.6429 7.62859 21.3 7.84288 21 7.84288C20.8714 7.84288 20.7857 7.80002 20.6571 7.75716L18.8571 6.98573V9.68574C18.8571 10.1572 18.4714 10.5429 18 10.5429C17.5286 10.5429 17.1429 10.1572 17.1429 9.68574V6.25716L12 3.94288L6.85715 6.21431V9.64288C6.85715 10.1143 6.47143 10.5 6 10.5C5.52857 10.5 5.14286 10.1143 5.14286 9.64288V6.94288L3.34286 7.75716C2.91429 7.97145 2.4 7.80002 2.22857 7.32859ZM15 6.81431C15.4714 6.81431 15.8571 7.20002 15.8571 7.67145C15.8571 8.14288 15.4714 8.52859 15 8.52859H9.34286C8.87143 8.52859 8.48572 8.14288 8.48572 7.67145C8.48572 7.20002 8.87143 6.81431 9.34286 6.81431H15Z" fill="white"/>
</svg>
