<svg width="48" height="48" viewBox="0 0 48 48" fill="none" xmlns="http://www.w3.org/2000/svg">
<path fill-rule="evenodd" clip-rule="evenodd" d="M29.4092 16.789L21.8412 26.727L18.5752 22.555C17.8932 21.683 16.6372 21.531 15.7672 22.213C14.8972 22.893 14.7432 24.151 15.4252 25.019L20.2872 31.233C20.6672 31.717 21.2472 31.999 21.8632 31.999H21.8772C22.4952 31.997 23.0792 31.705 23.4532 31.211L32.5912 19.211C33.2612 18.331 33.0912 17.079 32.2112 16.409C31.3312 15.739 30.0752 15.911 29.4092 16.789ZM38 36C38 37.104 37.102 38 36 38H12C10.898 38 10 37.104 10 36V12C10 10.896 10.898 10 12 10H36C37.102 10 38 10.896 38 12V36ZM36 6H12C8.692 6 6 8.692 6 12V36C6 39.308 8.692 42 12 42H36C39.308 42 42 39.308 42 36V12C42 8.692 39.308 6 36 6Z" fill="#FF5A00"/>
<mask id="mask0" mask-type="alpha" maskUnits="userSpaceOnUse" x="6" y="6" width="36" height="36">
<path fill-rule="evenodd" clip-rule="evenodd" d="M29.4092 16.789L21.8412 26.727L18.5752 22.555C17.8932 21.683 16.6372 21.531 15.7672 22.213C14.8972 22.893 14.7432 24.151 15.4252 25.019L20.2872 31.233C20.6672 31.717 21.2472 31.999 21.8632 31.999H21.8772C22.4952 31.997 23.0792 31.705 23.4532 31.211L32.5912 19.211C33.2612 18.331 33.0912 17.079 32.2112 16.409C31.3312 15.739 30.0752 15.911 29.4092 16.789ZM38 36C38 37.104 37.102 38 36 38H12C10.898 38 10 37.104 10 36V12C10 10.896 10.898 10 12 10H36C37.102 10 38 10.896 38 12V36ZM36 6H12C8.692 6 6 8.692 6 12V36C6 39.308 8.692 42 12 42H36C39.308 42 42 39.308 42 36V12C42 8.692 39.308 6 36 6Z" fill="white"/>
</mask>
<g mask="url(#mask0)">
</g>
</svg>
