<svg width="24" height="24" viewBox="0 0 24 24" fill="none" xmlns="http://www.w3.org/2000/svg">
<path fill-rule="evenodd" clip-rule="evenodd" d="M18.6904 15.9628L13.0004 18.6068V11.8908L19.0004 9.10379V15.5388C19.0004 15.7128 18.8824 15.8748 18.6904 15.9628ZM5.3034 15.9638C5.1144 15.8758 4.9984 15.7138 5.0004 15.5318V9.10379L11.0004 11.8908V18.6088L5.3034 15.9638ZM11.7074 5.06379C11.7984 5.02079 11.8994 4.99979 12.0004 4.99979C12.1004 4.99979 12.2014 5.02079 12.2924 5.06379L17.6214 7.53779L12.0004 10.1498L6.3784 7.53779L11.7074 5.06379ZM20.6564 7.25879C20.6534 7.25079 20.6544 7.24179 20.6504 7.23379C20.6474 7.22579 20.6394 7.22079 20.6344 7.21279C20.5884 7.13679 20.5324 7.06979 20.4794 6.99979C20.4484 6.96579 20.4234 6.92779 20.3894 6.89879C20.1544 6.62279 19.8774 6.37979 19.5334 6.22079L13.1334 3.24779C13.1324 3.24779 13.1314 3.24779 13.1314 3.24679C12.4124 2.91479 11.5874 2.91579 10.8664 3.24779L4.4694 6.21979C4.1254 6.37879 3.8474 6.62079 3.6124 6.89679C3.5754 6.92779 3.5484 6.96979 3.5154 7.00679C3.4634 7.07379 3.4104 7.13879 3.3664 7.21079C3.3614 7.21979 3.3534 7.22579 3.3494 7.23379C3.3454 7.24279 3.3464 7.25179 3.3424 7.26079C3.1314 7.62279 3.0004 8.02979 3.0004 8.45779V15.5248C2.9924 16.4748 3.5644 17.3588 4.4584 17.7768L10.8574 20.7488C11.2194 20.9178 11.6074 21.0018 11.9964 21.0018C12.3844 21.0018 12.7724 20.9178 13.1334 20.7498L19.5304 17.7778C20.4224 17.3658 20.9994 16.4878 21.0004 15.5398V8.45679C20.9994 8.02879 20.8684 7.62179 20.6564 7.25879Z" fill="white"/>
<mask id="mask0" mask-type="alpha" maskUnits="userSpaceOnUse" x="3" y="2" width="19" height="20">
<path fill-rule="evenodd" clip-rule="evenodd" d="M18.6904 15.9628L13.0004 18.6068V11.8908L19.0004 9.10379V15.5388C19.0004 15.7128 18.8824 15.8748 18.6904 15.9628ZM5.3034 15.9638C5.1144 15.8758 4.9984 15.7138 5.0004 15.5318V9.10379L11.0004 11.8908V18.6088L5.3034 15.9638ZM11.7074 5.06379C11.7984 5.02079 11.8994 4.99979 12.0004 4.99979C12.1004 4.99979 12.2014 5.02079 12.2924 5.06379L17.6214 7.53779L12.0004 10.1498L6.3784 7.53779L11.7074 5.06379ZM20.6564 7.25879C20.6534 7.25079 20.6544 7.24179 20.6504 7.23379C20.6474 7.22579 20.6394 7.22079 20.6344 7.21279C20.5884 7.13679 20.5324 7.06979 20.4794 6.99979C20.4484 6.96579 20.4234 6.92779 20.3894 6.89879C20.1544 6.62279 19.8774 6.37979 19.5334 6.22079L13.1334 3.24779C13.1324 3.24779 13.1314 3.24779 13.1314 3.24679C12.4124 2.91479 11.5874 2.91579 10.8664 3.24779L4.4694 6.21979C4.1254 6.37879 3.8474 6.62079 3.6124 6.89679C3.5754 6.92779 3.5484 6.96979 3.5154 7.00679C3.4634 7.07379 3.4104 7.13879 3.3664 7.21079C3.3614 7.21979 3.3534 7.22579 3.3494 7.23379C3.3454 7.24279 3.3464 7.25179 3.3424 7.26079C3.1314 7.62279 3.0004 8.02979 3.0004 8.45779V15.5248C2.9924 16.4748 3.5644 17.3588 4.4584 17.7768L10.8574 20.7488C11.2194 20.9178 11.6074 21.0018 11.9964 21.0018C12.3844 21.0018 12.7724 20.9178 13.1334 20.7498L19.5304 17.7778C20.4224 17.3658 20.9994 16.4878 21.0004 15.5398V8.45679C20.9994 8.02879 20.8684 7.62179 20.6564 7.25879Z" fill="white"/>
</mask>
<g mask="url(#mask0)">
</g>
</svg>
