<svg width="354" height="298" viewBox="0 0 354 298" fill="none" xmlns="http://www.w3.org/2000/svg">
<path d="M360.841 1H245.092C242.131 1 239.585 3.09204 239.019 5.9896L218.336 112H193.586L213.809 8.34373C214.552 4.53735 211.627 1 207.736 1H80.7205C63.4288 1 48.5586 13.2748 45.2437 30.284L1.68213 253.826C-2.67774 276.199 14.4152 297 37.1589 297H80.9835C83.9426 297 86.488 294.911 87.0557 292.017L111.629 166.729H136.379L112.27 289.65C111.523 293.459 114.449 297 118.342 297H224.069C227.029 297 229.574 294.911 230.142 292.017L254.715 166.729H279.465L255.356 289.65C254.609 293.459 257.535 297 261.428 297H317.28C334.571 297 349.441 284.725 352.756 267.716L396.318 44.1744C400.678 21.8009 383.585 1 360.841 1" stroke="white" stroke-width="2"/>
</svg>
