<svg width="1440" height="605" viewBox="0 0 1440 605" fill="none" xmlns="http://www.w3.org/2000/svg">
<path d="M0 0H1440V557C1440 583.51 1418.51 605 1392 605H48C21.4904 605 0 583.51 0 557V0Z" fill="url(#paint0_linear)"/>
<mask id="mask0" mask-type="alpha" maskUnits="userSpaceOnUse" x="0" y="0" width="1440" height="605">
<rect width="1440" height="605" fill="#C4C4C4"/>
</mask>
<g mask="url(#mask0)">
<path fill-rule="evenodd" clip-rule="evenodd" d="M720 1135C1012.71 1135 1250 897.711 1250 605C1250 312.289 1012.71 75 720 75C427.289 75 190 312.289 190 605C190 897.711 427.289 1135 720 1135ZM720 1051C966.319 1051 1166 851.319 1166 605C1166 358.681 966.319 159 720 159C473.681 159 274 358.681 274 605C274 851.319 473.681 1051 720 1051Z" fill="white" fill-opacity="0.05"/>
<path fill-rule="evenodd" clip-rule="evenodd" d="M720 1051C966.319 1051 1166 851.319 1166 605C1166 358.681 966.319 159 720 159C473.681 159 274 358.681 274 605C274 851.319 473.681 1051 720 1051ZM720 968C920.479 968 1083 805.479 1083 605C1083 404.521 920.479 242 720 242C519.521 242 357 404.521 357 605C357 805.479 519.521 968 720 968Z" fill="white" fill-opacity="0.1"/>
<path fill-rule="evenodd" clip-rule="evenodd" d="M720 968C920.479 968 1083 805.479 1083 605C1083 404.521 920.479 242 720 242C519.521 242 357 404.521 357 605C357 805.479 519.521 968 720 968ZM720 884C874.087 884 999 759.087 999 605C999 450.913 874.087 326 720 326C565.913 326 441 450.913 441 605C441 759.087 565.913 884 720 884Z" fill="white" fill-opacity="0.15"/>
<circle cx="720" cy="605" r="195" fill="white" fill-opacity="0.25"/>
<path fill-rule="evenodd" clip-rule="evenodd" d="M720 884C874.087 884 999 759.087 999 605C999 450.913 874.087 326 720 326C565.913 326 441 450.913 441 605C441 759.087 565.913 884 720 884ZM720 800C827.696 800 915 712.696 915 605C915 497.304 827.696 410 720 410C612.304 410 525 497.304 525 605C525 712.696 612.304 800 720 800Z" fill="white" fill-opacity="0.2"/>
</g>
<defs>
<linearGradient id="paint0_linear" x1="-26" y1="26" x2="100.279" y2="565.708" gradientUnits="userSpaceOnUse">
<stop stop-color="#FF821C"/>
<stop offset="1" stop-color="#FF5A00"/>
</linearGradient>
</defs>
</svg>
