<svg width="72" height="72" viewBox="0 0 72 72" fill="none" xmlns="http://www.w3.org/2000/svg">
<path d="M56.5713 33.4286H52.7142V24.4286C52.7142 23.0143 51.557 21.8571 50.1428 21.8571H37.2856V15.0429C37.2856 14.7857 37.2856 14.6571 37.157 14.4V14.2714C37.157 14.1429 37.0285 13.8857 36.8999 13.7571C36.7713 13.6286 36.6428 13.3714 36.5142 13.2429L36.3856 13.1143C36.1285 12.8571 35.9999 12.7286 35.7428 12.7286L22.2428 6.68572C21.5999 6.42857 20.8285 6.42857 20.1856 6.68572L6.68562 12.6C6.42848 12.7286 6.2999 12.8571 6.17133 12.9857L6.04276 13.1143C5.91419 13.2429 5.78562 13.3714 5.65705 13.6286C5.52848 13.7571 5.52848 14.0143 5.3999 14.1429V14.2714C5.14276 14.5286 5.14276 14.7857 5.14276 15.0429V30.0857V30.2143C5.14276 30.3429 5.14276 30.4714 5.14276 30.4714C5.14276 30.6 5.14276 30.6 5.27133 30.7286C5.27133 30.8571 5.27133 30.8571 5.3999 30.9857C5.3999 31.1143 5.52848 31.1143 5.52848 31.2429C5.52848 31.3714 5.65705 31.3714 5.65705 31.5C5.65705 31.6286 5.78562 31.6286 5.78562 31.7571C5.78562 31.8857 5.91419 31.8857 5.91419 32.0143C5.91419 32.0143 6.04276 32.1429 6.17133 32.1429L6.2999 32.2714C6.42848 32.2714 6.42848 32.4 6.55705 32.4C6.55705 32.4 6.68562 32.4 6.68562 32.5286L10.2856 33.9429V57.8572C10.2856 59.2714 11.4428 60.4286 12.857 60.4286H17.2285C18.257 63.3857 21.0856 65.5714 24.4285 65.5714C27.7713 65.5714 30.5999 63.3857 31.6285 60.4286H42.8142C43.8428 63.3857 46.6713 65.5714 50.0142 65.5714C53.357 65.5714 56.1856 63.3857 57.2142 60.4286H64.2856C65.6999 60.4286 66.857 59.2714 66.857 57.8572V43.7143C66.857 38.0571 62.2285 33.4286 56.5713 33.4286ZM10.2856 28.2857V18.9L18.6428 22.6286V32.0143L10.2856 28.2857ZM23.7856 22.6286L32.1428 18.9V28.2857L23.7856 32.0143V22.6286ZM21.2142 11.8286L28.4142 15.0429L21.2142 18.2571L14.0142 15.0429L21.2142 11.8286ZM15.4285 36.2571L20.1856 38.3143C20.3142 38.3143 20.4428 38.4429 20.5713 38.4429C20.6999 38.4429 20.957 38.4429 21.0856 38.4429C21.2142 38.4429 21.4713 38.4429 21.5999 38.4429C21.7285 38.4429 21.857 38.3143 21.9856 38.3143L35.4856 32.2714C35.4856 32.2714 35.6142 32.2714 35.6142 32.1429C35.7428 32.1429 35.8713 32.0143 35.8713 32.0143C35.9999 32.0143 35.9999 31.8857 35.9999 31.8857C36.1285 31.8857 36.1285 31.7571 36.257 31.7571C36.257 31.7571 36.3856 31.6286 36.3856 31.5C36.3856 31.3714 36.5142 31.3714 36.5142 31.2429C36.5142 31.1143 36.6428 31.1143 36.6428 30.9857C36.6428 30.8571 36.7713 30.8571 36.7713 30.7286C36.7713 30.6 36.7713 30.6 36.8999 30.4714C36.8999 30.3429 36.8999 30.3429 37.0285 30.2143C37.0285 30.0857 37.0285 29.9571 37.0285 29.9571V29.8286V27H47.3142V50.6572C45.1285 51.4286 43.457 53.2286 42.6856 55.2857H31.4999C30.4713 52.3286 27.6428 50.1429 24.2999 50.1429C20.957 50.1429 18.1285 52.3286 17.0999 55.2857H15.4285V36.2571ZM24.4285 60.4286C23.0142 60.4286 21.857 59.2714 21.857 57.8572C21.857 56.4429 23.0142 55.2857 24.4285 55.2857C25.8428 55.2857 26.9999 56.4429 26.9999 57.8572C26.9999 59.2714 25.8428 60.4286 24.4285 60.4286ZM50.1428 60.4286C48.7285 60.4286 47.5713 59.2714 47.5713 57.8572C47.5713 56.4429 48.7285 55.2857 50.1428 55.2857C51.557 55.2857 52.7142 56.4429 52.7142 57.8572C52.7142 59.2714 51.557 60.4286 50.1428 60.4286ZM61.7142 55.2857H57.3428C56.5713 53.1 54.7713 51.4286 52.7142 50.6572V38.5714H56.5713C59.3999 38.5714 61.7142 40.8857 61.7142 43.7143V55.2857Z" fill="#FF5A00"/>
</svg>
