<svg width="382" height="671" viewBox="0 0 382 671" fill="none" xmlns="http://www.w3.org/2000/svg">
<g filter="url(#filter0_d)">
<path d="M124.435 30H317.754C342.191 30 362 49.7821 362 74.1845V556.815C362 581.218 342.191 601 317.754 601H244.585L243.904 599.301H199.318L198.638 601H124.435C99.999 601 80.1896 581.218 80.1896 556.815V74.1845C80.1896 49.7821 99.999 30 124.435 30Z" fill="black"/>
</g>
<path d="M124.435 30H317.754C342.191 30 362 49.7821 362 74.1845V556.815C362 581.218 342.191 601 317.754 601H244.585L243.904 599.301H199.318L198.638 601H124.435C99.999 601 80.1896 581.218 80.1896 556.815V74.1845C80.1896 49.7821 99.999 30 124.435 30Z" fill="#E7E8E9"/>
<g filter="url(#filter1_ii)">
<path d="M124.435 30H317.754C342.191 30 362 49.7821 362 74.1845V556.815C362 581.218 342.191 601 317.754 601H244.585L243.904 599.301H199.318L198.638 601H124.435C99.999 601 80.1896 581.218 80.1896 556.815V74.1845C80.1896 49.7821 99.999 30 124.435 30Z" fill="#E7E8E9"/>
</g>
<g filter="url(#filter2_d)">
<path d="M120.351 49.5872H321.839C334.621 49.5872 344.982 59.9347 344.982 72.6991V559.088C344.982 571.852 334.621 582.2 321.839 582.2H120.351C107.569 582.2 97.207 571.852 97.207 559.088V72.6991C97.207 59.9347 107.569 49.5872 120.351 49.5872Z" fill="black"/>
</g>
<path d="M120.351 49.5872H321.839C334.621 49.5872 344.982 59.9347 344.982 72.6991V559.088C344.982 571.852 334.621 582.2 321.839 582.2H120.351C107.569 582.2 97.207 571.852 97.207 559.088V72.6991C97.207 59.9347 107.569 49.5872 120.351 49.5872Z" fill="#E7E8E9"/>
<path d="M80.128 175.469H79.042C77.9142 175.469 76.9999 176.382 76.9999 177.508V210.817C76.9999 211.943 77.9142 212.856 79.042 212.856H80.128V175.469Z" fill="#E6E7E9"/>
<g filter="url(#filter3_i)">
<path d="M80.128 175.469H79.042C77.9142 175.469 76.9999 176.382 76.9999 177.508V210.817C76.9999 211.943 77.9142 212.856 79.042 212.856H80.128V175.469Z" fill="#E6E7E9"/>
</g>
<path d="M80.128 224.201H79.042C77.9142 224.201 76.9999 225.114 76.9999 226.24V313.538C76.9999 314.664 77.9142 315.577 79.042 315.577H80.128V224.201Z" fill="#E6E7E9"/>
<g filter="url(#filter4_i)">
<path d="M80.128 224.201H79.042C77.9142 224.201 76.9999 225.114 76.9999 226.24V313.538C76.9999 314.664 77.9142 315.577 79.042 315.577H80.128V224.201Z" fill="#E6E7E9"/>
</g>
<path fill-rule="evenodd" clip-rule="evenodd" d="M99.2514 97.9929H342.959C344.087 97.9929 345.001 98.9059 345.001 100.032V533.687C345.001 534.813 344.087 535.726 342.959 535.726H99.2514C98.1236 535.726 97.2093 534.813 97.2093 533.687V100.032C97.2093 98.9059 98.1236 97.9929 99.2514 97.9929Z" fill="#F2F2F4"/>
<path d="M194.264 549.026H248.823C256.342 549.026 262.437 555.113 262.437 562.622V562.656C262.437 570.164 256.342 576.251 248.823 576.251H194.264C186.745 576.251 180.65 570.164 180.65 562.656V562.622C180.65 555.113 186.745 549.026 194.264 549.026Z" fill="#E7E8E9"/>
<g filter="url(#filter5_ii)">
<path d="M194.264 549.026H248.823C256.342 549.026 262.437 555.113 262.437 562.622V562.656C262.437 570.164 256.342 576.251 248.823 576.251H194.264C186.745 576.251 180.65 570.164 180.65 562.656V562.622C180.65 555.113 186.745 549.026 194.264 549.026Z" fill="#E7E8E9"/>
</g>
<path d="M175.955 76.5568C178.211 76.5568 180.04 74.7308 180.04 72.4782C180.04 70.2257 178.211 68.3997 175.955 68.3997C173.7 68.3997 171.871 70.2257 171.871 72.4782C171.871 74.7308 173.7 76.5568 175.955 76.5568Z" fill="#CDD5DD"/>
<g filter="url(#filter6_ii)">
<path d="M175.955 76.5568C178.211 76.5568 180.04 74.7308 180.04 72.4782C180.04 70.2257 178.211 68.3997 175.955 68.3997C173.7 68.3997 171.871 70.2257 171.871 72.4782C171.871 74.7308 173.7 76.5568 175.955 76.5568Z" fill="#D3D5D7"/>
</g>
<path d="M200.464 67.4456H242.624C245.255 67.4456 247.388 69.5759 247.388 72.2039V72.6758C247.388 75.3037 245.255 77.4341 242.624 77.4341H200.464C197.832 77.4341 195.699 75.3037 195.699 72.6758V72.2039C195.699 69.5759 197.832 67.4456 200.464 67.4456Z" fill="#D3D5D7"/>
<g filter="url(#filter7_ii)">
<path d="M200.464 67.4456H242.624C245.255 67.4456 247.388 69.5759 247.388 72.2039V72.6758C247.388 75.3037 245.255 77.4341 242.624 77.4341H200.464C197.832 77.4341 195.699 75.3037 195.699 72.6758V72.2039C195.699 69.5759 197.832 67.4456 200.464 67.4456Z" fill="#D3D5D7"/>
</g>
<defs>
<filter id="filter0_d" x="0.189575" y="0" width="381.811" height="671" filterUnits="userSpaceOnUse" color-interpolation-filters="sRGB">
<feFlood flood-opacity="0" result="BackgroundImageFix"/>
<feColorMatrix in="SourceAlpha" type="matrix" values="0 0 0 0 0 0 0 0 0 0 0 0 0 0 0 0 0 0 127 0"/>
<feOffset dx="-30" dy="20"/>
<feGaussianBlur stdDeviation="25"/>
<feColorMatrix type="matrix" values="0 0 0 0 0 0 0 0 0 0 0 0 0 0 0 0 0 0 0.1 0"/>
<feBlend mode="multiply" in2="BackgroundImageFix" result="effect1_dropShadow"/>
<feBlend mode="normal" in="SourceGraphic" in2="effect1_dropShadow" result="shape"/>
</filter>
<filter id="filter1_ii" x="80.1896" y="26" width="289.811" height="575" filterUnits="userSpaceOnUse" color-interpolation-filters="sRGB">
<feFlood flood-opacity="0" result="BackgroundImageFix"/>
<feBlend mode="normal" in="SourceGraphic" in2="BackgroundImageFix" result="shape"/>
<feColorMatrix in="SourceAlpha" type="matrix" values="0 0 0 0 0 0 0 0 0 0 0 0 0 0 0 0 0 0 127 0" result="hardAlpha"/>
<feOffset/>
<feGaussianBlur stdDeviation="20"/>
<feComposite in2="hardAlpha" operator="arithmetic" k2="-1" k3="1"/>
<feColorMatrix type="matrix" values="0 0 0 0 1 0 0 0 0 1 0 0 0 0 1 0 0 0 1 0"/>
<feBlend mode="normal" in2="shape" result="effect1_innerShadow"/>
<feColorMatrix in="SourceAlpha" type="matrix" values="0 0 0 0 0 0 0 0 0 0 0 0 0 0 0 0 0 0 127 0" result="hardAlpha"/>
<feOffset dx="8" dy="-4"/>
<feGaussianBlur stdDeviation="7"/>
<feComposite in2="hardAlpha" operator="arithmetic" k2="-1" k3="1"/>
<feColorMatrix type="matrix" values="0 0 0 0 0.806471 0 0 0 0 0.814765 0 0 0 0 0.824902 0 0 0 1 0"/>
<feBlend mode="normal" in2="effect1_innerShadow" result="effect2_innerShadow"/>
</filter>
<filter id="filter2_d" x="78.207" y="30.5872" width="285.775" height="570.613" filterUnits="userSpaceOnUse" color-interpolation-filters="sRGB">
<feFlood flood-opacity="0" result="BackgroundImageFix"/>
<feColorMatrix in="SourceAlpha" type="matrix" values="0 0 0 0 0 0 0 0 0 0 0 0 0 0 0 0 0 0 127 0"/>
<feOffset/>
<feGaussianBlur stdDeviation="9.5"/>
<feColorMatrix type="matrix" values="0 0 0 0 0.894118 0 0 0 0 0.909804 0 0 0 0 0.929412 0 0 0 1 0"/>
<feBlend mode="normal" in2="BackgroundImageFix" result="effect1_dropShadow"/>
<feBlend mode="normal" in="SourceGraphic" in2="effect1_dropShadow" result="shape"/>
</filter>
<filter id="filter3_i" x="76.9999" y="175.469" width="3.1281" height="37.3869" filterUnits="userSpaceOnUse" color-interpolation-filters="sRGB">
<feFlood flood-opacity="0" result="BackgroundImageFix"/>
<feBlend mode="normal" in="SourceGraphic" in2="BackgroundImageFix" result="shape"/>
<feColorMatrix in="SourceAlpha" type="matrix" values="0 0 0 0 0 0 0 0 0 0 0 0 0 0 0 0 0 0 127 0" result="hardAlpha"/>
<feOffset/>
<feGaussianBlur stdDeviation="4.5"/>
<feComposite in2="hardAlpha" operator="arithmetic" k2="-1" k3="1"/>
<feColorMatrix type="matrix" values="0 0 0 0 0.905294 0 0 0 0 0.909804 0 0 0 0 0.914314 0 0 0 1 0"/>
<feBlend mode="normal" in2="shape" result="effect1_innerShadow"/>
</filter>
<filter id="filter4_i" x="76.9999" y="224.201" width="3.1281" height="91.3762" filterUnits="userSpaceOnUse" color-interpolation-filters="sRGB">
<feFlood flood-opacity="0" result="BackgroundImageFix"/>
<feBlend mode="normal" in="SourceGraphic" in2="BackgroundImageFix" result="shape"/>
<feColorMatrix in="SourceAlpha" type="matrix" values="0 0 0 0 0 0 0 0 0 0 0 0 0 0 0 0 0 0 127 0" result="hardAlpha"/>
<feOffset/>
<feGaussianBlur stdDeviation="9.5"/>
<feComposite in2="hardAlpha" operator="arithmetic" k2="-1" k3="1"/>
<feColorMatrix type="matrix" values="0 0 0 0 0.905294 0 0 0 0 0.909804 0 0 0 0 0.914314 0 0 0 1 0"/>
<feBlend mode="normal" in2="shape" result="effect1_innerShadow"/>
</filter>
<filter id="filter5_ii" x="180.65" y="548.026" width="81.787" height="29.2246" filterUnits="userSpaceOnUse" color-interpolation-filters="sRGB">
<feFlood flood-opacity="0" result="BackgroundImageFix"/>
<feBlend mode="normal" in="SourceGraphic" in2="BackgroundImageFix" result="shape"/>
<feColorMatrix in="SourceAlpha" type="matrix" values="0 0 0 0 0 0 0 0 0 0 0 0 0 0 0 0 0 0 127 0" result="hardAlpha"/>
<feOffset dy="-1"/>
<feGaussianBlur stdDeviation="0.5"/>
<feComposite in2="hardAlpha" operator="arithmetic" k2="-1" k3="1"/>
<feColorMatrix type="matrix" values="0 0 0 0 0.788235 0 0 0 0 0.819608 0 0 0 0 0.858824 0 0 0 1 0"/>
<feBlend mode="normal" in2="shape" result="effect1_innerShadow"/>
<feColorMatrix in="SourceAlpha" type="matrix" values="0 0 0 0 0 0 0 0 0 0 0 0 0 0 0 0 0 0 127 0" result="hardAlpha"/>
<feOffset dy="1"/>
<feGaussianBlur stdDeviation="0.5"/>
<feComposite in2="hardAlpha" operator="arithmetic" k2="-1" k3="1"/>
<feColorMatrix type="matrix" values="0 0 0 0 1 0 0 0 0 1 0 0 0 0 1 0 0 0 1 0"/>
<feBlend mode="normal" in2="effect1_innerShadow" result="effect2_innerShadow"/>
</filter>
<filter id="filter6_ii" x="171.871" y="67.3997" width="8.16843" height="10.1571" filterUnits="userSpaceOnUse" color-interpolation-filters="sRGB">
<feFlood flood-opacity="0" result="BackgroundImageFix"/>
<feBlend mode="normal" in="SourceGraphic" in2="BackgroundImageFix" result="shape"/>
<feColorMatrix in="SourceAlpha" type="matrix" values="0 0 0 0 0 0 0 0 0 0 0 0 0 0 0 0 0 0 127 0" result="hardAlpha"/>
<feOffset dy="-1"/>
<feGaussianBlur stdDeviation="0.5"/>
<feComposite in2="hardAlpha" operator="arithmetic" k2="-1" k3="1"/>
<feColorMatrix type="matrix" values="0 0 0 0 1 0 0 0 0 1 0 0 0 0 1 0 0 0 1 0"/>
<feBlend mode="normal" in2="shape" result="effect1_innerShadow"/>
<feColorMatrix in="SourceAlpha" type="matrix" values="0 0 0 0 0 0 0 0 0 0 0 0 0 0 0 0 0 0 127 0" result="hardAlpha"/>
<feOffset dy="1"/>
<feGaussianBlur stdDeviation="0.5"/>
<feComposite in2="hardAlpha" operator="arithmetic" k2="-1" k3="1"/>
<feColorMatrix type="matrix" values="0 0 0 0 0 0 0 0 0 0 0 0 0 0 0 0 0 0 0.5 0"/>
<feBlend mode="normal" in2="effect1_innerShadow" result="effect2_innerShadow"/>
</filter>
<filter id="filter7_ii" x="195.699" y="66.4456" width="51.6899" height="11.4886" filterUnits="userSpaceOnUse" color-interpolation-filters="sRGB">
<feFlood flood-opacity="0" result="BackgroundImageFix"/>
<feBlend mode="normal" in="SourceGraphic" in2="BackgroundImageFix" result="shape"/>
<feColorMatrix in="SourceAlpha" type="matrix" values="0 0 0 0 0 0 0 0 0 0 0 0 0 0 0 0 0 0 127 0" result="hardAlpha"/>
<feOffset dy="-1"/>
<feGaussianBlur stdDeviation="0.5"/>
<feComposite in2="hardAlpha" operator="arithmetic" k2="-1" k3="1"/>
<feColorMatrix type="matrix" values="0 0 0 0 1 0 0 0 0 1 0 0 0 0 1 0 0 0 1 0"/>
<feBlend mode="normal" in2="shape" result="effect1_innerShadow"/>
<feColorMatrix in="SourceAlpha" type="matrix" values="0 0 0 0 0 0 0 0 0 0 0 0 0 0 0 0 0 0 127 0" result="hardAlpha"/>
<feOffset dy="1"/>
<feGaussianBlur stdDeviation="0.25"/>
<feComposite in2="hardAlpha" operator="arithmetic" k2="-1" k3="1"/>
<feColorMatrix type="matrix" values="0 0 0 0 0 0 0 0 0 0 0 0 0 0 0 0 0 0 0.381058 0"/>
<feBlend mode="normal" in2="effect1_innerShadow" result="effect2_innerShadow"/>
</filter>
</defs>
</svg>
