<svg width="1440" height="605" viewBox="0 0 1440 605" fill="none" xmlns="http://www.w3.org/2000/svg">
<g clip-path="url(#clip0)">
<path d="M188.206 72H73.6267C70.6951 72 68.1747 74.3695 67.615 77.6513L47.1406 197.721H22.6406L42.6594 80.3177C43.3952 76.0065 40.4996 72 36.6477 72H-89.0848C-106.202 72 -120.922 85.9026 -124.203 105.168L-167.325 358.355C-171.641 383.696 -154.72 407.255 -132.206 407.255H-88.8244C-85.8952 407.255 -83.3755 404.89 -82.8135 401.611L-58.4888 259.708H-33.9888L-57.8541 398.931C-58.5937 403.245 -55.6974 407.255 -51.8432 407.255H52.8162C55.7455 407.255 58.2652 404.89 58.8271 401.611L83.1518 259.708H107.652L83.7865 398.931C83.0469 403.245 85.9433 407.255 89.7974 407.255H145.085C162.202 407.255 176.922 393.353 180.203 374.088L223.325 120.9C227.641 95.5596 210.72 72 188.206 72" stroke="#FFD099" stroke-opacity="0.2" stroke-width="2"/>
</g>
<defs>
<clipPath id="clip0">
<rect width="1440" height="605" fill="white"/>
</clipPath>
</defs>
</svg>
