<svg width="1440" height="605" viewBox="0 0 1440 605" fill="none" xmlns="http://www.w3.org/2000/svg">
<g clip-path="url(#clip0)">
<path d="M0 0H1440V605H0V0Z" fill="url(#paint0_linear)"/>
<g opacity="0.5">
<path d="M1031.31 161.026H923.45C920.69 161.026 918.317 162.987 917.791 165.703L898.518 265.054H875.455L894.299 167.909C894.992 164.342 892.266 161.026 888.64 161.026H770.285C754.172 161.026 740.316 172.53 737.227 188.471L696.636 397.971C692.573 418.939 708.501 438.434 729.694 438.434H770.53C773.287 438.434 775.659 436.476 776.188 433.763L799.086 316.346H822.148L799.683 431.545C798.987 435.115 801.713 438.434 805.341 438.434H903.86C906.618 438.434 908.989 436.476 909.518 433.763L932.416 316.346H955.478L933.013 431.545C932.317 435.115 935.044 438.434 938.672 438.434H990.715C1006.83 438.434 1020.68 426.93 1023.77 410.989L1064.36 201.489C1068.43 180.521 1052.5 161.026 1031.31 161.026" stroke="#FFD099" stroke-opacity="0.5" stroke-width="2"/>
<path d="M1462.63 143H1391.02C1389.18 143 1387.61 144.302 1387.26 146.106L1374.46 212.101H1359.15L1371.66 147.572C1372.12 145.202 1370.31 143 1367.9 143H1289.32C1278.62 143 1269.42 150.641 1267.37 161.23L1240.42 300.393C1237.72 314.321 1248.3 327.271 1262.37 327.271H1289.48C1291.32 327.271 1292.89 325.97 1293.24 324.168L1308.44 246.172H1323.76L1308.84 322.695C1308.38 325.066 1310.19 327.271 1312.6 327.271H1378.01C1379.84 327.271 1381.42 325.97 1381.77 324.168L1396.97 246.172H1412.28L1397.37 322.695C1396.9 325.066 1398.71 327.271 1401.12 327.271H1435.68C1446.38 327.271 1455.58 319.629 1457.63 309.04L1484.58 169.878C1487.28 155.949 1476.7 143 1462.63 143" stroke="#FFD099" stroke-opacity="0.3" stroke-width="2"/>
<path opacity="0.7" d="M1320.75 212.102H1207.93C1205.04 212.102 1202.56 214.147 1202.01 216.98L1181.85 320.636H1157.72L1177.44 219.282C1178.16 215.56 1175.31 212.102 1171.52 212.102H1047.71C1030.85 212.102 1016.36 224.104 1013.13 240.735L970.665 459.311C966.415 481.188 983.076 501.527 1005.25 501.527H1047.96C1050.85 501.527 1053.33 499.484 1053.88 496.654L1077.83 374.149H1101.96L1078.46 494.34C1077.73 498.064 1080.58 501.527 1084.38 501.527H1187.44C1190.32 501.527 1192.8 499.484 1193.36 496.654L1217.31 374.149H1241.43L1217.93 494.34C1217.2 498.064 1220.06 501.527 1223.85 501.527H1278.29C1295.15 501.527 1309.64 489.524 1312.87 472.893L1355.34 254.317C1359.58 232.44 1342.92 212.102 1320.75 212.102" stroke="#FFD099" stroke-width="2"/>
</g>
<path d="M188.206 72H73.6267C70.6951 72 68.1747 74.3695 67.615 77.6513L47.1406 197.721H22.6406L42.6594 80.3177C43.3952 76.0065 40.4996 72 36.6477 72H-89.0848C-106.202 72 -120.922 85.9026 -124.203 105.168L-167.325 358.355C-171.641 383.696 -154.72 407.255 -132.206 407.255H-88.8244C-85.8952 407.255 -83.3755 404.89 -82.8135 401.611L-58.4888 259.708H-33.9888L-57.8541 398.931C-58.5937 403.245 -55.6974 407.255 -51.8432 407.255H52.8162C55.7455 407.255 58.2652 404.89 58.8271 401.611L83.1518 259.708H107.652L83.7865 398.931C83.0469 403.245 85.9433 407.255 89.7974 407.255H145.085C162.202 407.255 176.922 393.353 180.203 374.088L223.325 120.9C227.641 95.5596 210.72 72 188.206 72" stroke="#FFD099" stroke-opacity="0.2" stroke-width="2"/>
</g>
<defs>
<linearGradient id="paint0_linear" x1="-26" y1="26" x2="100.279" y2="565.708" gradientUnits="userSpaceOnUse">
<stop stop-color="#FF821C"/>
<stop offset="1" stop-color="#FF5A00"/>
</linearGradient>
<clipPath id="clip0">
<rect width="1440" height="605" fill="white"/>
</clipPath>
</defs>
</svg>
