<svg width="183" height="32" viewBox="0 0 183 32" fill="none" xmlns="http://www.w3.org/2000/svg">
<path fill-rule="evenodd" clip-rule="evenodd" d="M53.6248 27.6182H47.5338L49.7734 14.6778C50.5627 10.0393 53.0566 7.89249 58.2014 7.89249C61.1684 7.89249 63.1582 8.61988 64.1664 10.1034C65.6477 8.61988 67.8277 7.89249 70.7616 7.89249C73.2577 7.89249 75.0861 8.5226 76.2535 9.8182C77.4252 11.1116 77.832 12.7211 77.4849 14.6778L75.1812 27.6182H69.0901L71.2369 15.3101C71.5221 13.8575 70.8588 13.1323 69.3112 13.1323C67.7658 13.1323 66.8482 13.8575 66.5653 15.3101L64.3875 27.6182H58.2965L60.4432 15.3101C60.7285 13.8575 60.0652 13.1323 58.4844 13.1323C56.9412 13.1323 56.0568 13.8575 55.7716 15.3101L53.6248 27.6182ZM91.6118 15.6256C91.928 13.9519 91.2006 13.1317 89.465 13.1317C87.7295 13.1317 86.6859 13.9519 86.372 15.6256L85.5827 20.169C85.2997 21.8427 86.0249 22.6629 87.7604 22.6629C89.496 22.6629 90.5395 21.8427 90.8247 20.169L91.6118 15.6256ZM96.4427 9.85063C97.7338 11.144 98.2401 12.7536 97.8908 14.6461L96.7566 21.2125C96.0314 25.1568 92.6841 27.9027 86.9711 27.9027C84.1301 27.9027 82.0496 27.2726 80.754 25.9792C79.4629 24.6836 78.9544 23.105 79.3015 21.2125L80.4379 14.6461C81.1631 10.6399 84.4772 7.89176 90.2565 7.89176C93.0644 7.89176 95.1161 8.55504 96.4427 9.85063ZM143.553 8.20908L142.607 13.1328H141.157C138.534 13.1328 137.59 13.858 137.179 16.3828L135.222 27.6187H129.131L131.024 16.699C131.625 13.2898 132.76 10.955 134.371 9.72356C135.979 8.49208 138.727 8.20908 142.64 8.20908H143.553ZM145.9 8.20908H151.991L148.584 27.6187H142.458L145.9 8.20908ZM158.246 27.6182H152.155L154.394 14.6778C155.181 10.0393 157.677 7.89249 162.82 7.89249C165.787 7.89249 167.779 8.61988 168.787 10.1034C170.269 8.61988 172.446 7.89249 175.382 7.89249C177.876 7.89249 179.705 8.5226 180.874 9.8182C182.044 11.1116 182.453 12.7211 182.106 14.6778L179.802 27.6182H173.711L175.858 15.3101C176.141 13.8575 175.477 13.1323 173.93 13.1323C172.387 13.1323 171.467 13.8575 171.186 15.3101L169.008 27.6182H162.917L165.064 15.3101C165.347 13.8575 164.684 13.1323 163.105 13.1323C161.56 13.1323 160.675 13.8575 160.392 15.3101L158.246 27.6182ZM112.941 18.1495C112.941 18.1495 114.011 18.49 114.224 19.1334L116.996 27.6188H110.463L108.252 19.9492L108.526 20.8955C108.301 20.283 107.828 19.9182 106.956 19.9492H106.267L104.909 27.6188H98.785L103.079 3.31653H109.203L107.149 14.9946H107.974L107.967 14.9923C108.834 14.9923 109.543 14.5745 109.897 14.0505L113.81 8.20927H120.467L114.752 16.8606C114.319 17.5283 113.746 18.0036 112.941 18.1495ZM122.94 8.20908H129.031L125.624 27.6187H119.498L122.94 8.20908Z" fill="#0A1F44"/>
<mask id="mask0" mask-type="alpha" maskUnits="userSpaceOnUse" x="0" y="0" width="43" height="32">
<path fill-rule="evenodd" clip-rule="evenodd" d="M0 0H42.4495V31.8371H0V0Z" fill="white"/>
</mask>
<g mask="url(#mask0)">
<path fill-rule="evenodd" clip-rule="evenodd" d="M38.5733 0H26.1657C25.8481 0 25.5752 0.225015 25.5145 0.536588L23.2973 11.9389H20.6444L22.8122 0.789958C22.8917 0.380387 22.5782 0 22.1611 0H8.54565C6.69197 0 5.09813 1.32024 4.74278 3.14972L0.0730062 27.1934C-0.394269 29.5999 1.43802 31.8371 3.87605 31.8371H8.57384C8.89105 31.8371 9.16382 31.6126 9.22468 31.3012L11.8589 17.8255H14.512L11.9277 31.0465C11.8476 31.4562 12.1612 31.8371 12.5785 31.8371H23.912C24.2292 31.8371 24.502 31.6126 24.5629 31.3012L27.197 17.8255H29.8501L27.2659 31.0465C27.1858 31.4562 27.4993 31.8371 27.9167 31.8371H33.9037C35.7574 31.8371 37.3514 30.5168 37.7066 28.6874L42.3764 4.64374C42.8436 2.23722 41.0114 0 38.5733 0Z" fill="#FF5A00"/>
</g>
</svg>
