<svg width="287" height="572" viewBox="0 0 287 572" fill="none" xmlns="http://www.w3.org/2000/svg">
<path d="M47.4352 0H240.754C265.191 0 285 19.7821 285 44.1845V526.815C285 551.218 265.191 571 240.754 571H167.585L166.904 569.301H122.318L121.638 571H47.4352C22.999 571 3.18958 551.218 3.18958 526.815V44.1845C3.18958 19.7821 22.999 0 47.4352 0Z" fill="#E7E8E9"/>
<g filter="url(#filter0_ii)">
<path d="M47.4352 0H240.754C265.191 0 285 19.7821 285 44.1845V526.815C285 551.218 265.191 571 240.754 571H167.585L166.904 569.301H122.318L121.638 571H47.4352C22.999 571 3.18958 551.218 3.18958 526.815V44.1845C3.18958 19.7821 22.999 0 47.4352 0Z" fill="#E7E8E9"/>
</g>
<g filter="url(#filter1_d)">
<path d="M43.3509 19.5872H244.839C257.621 19.5872 267.982 29.9347 267.982 42.6991V529.088C267.982 541.852 257.621 552.2 244.839 552.2H43.3509C30.5689 552.2 20.207 541.852 20.207 529.088V42.6991C20.207 29.9347 30.5689 19.5872 43.3509 19.5872Z" fill="black"/>
</g>
<path d="M43.3509 19.5872H244.839C257.621 19.5872 267.982 29.9347 267.982 42.6991V529.088C267.982 541.852 257.621 552.2 244.839 552.2H43.3509C30.5689 552.2 20.207 541.852 20.207 529.088V42.6991C20.207 29.9347 30.5689 19.5872 43.3509 19.5872Z" fill="#E7E8E9"/>
<path d="M3.12799 145.469H2.042C0.914172 145.469 -0.000109543 146.382 -0.000109543 147.508V180.817C-0.000109543 181.943 0.914172 182.856 2.042 182.856H3.12799V145.469Z" fill="#E6E7E9"/>
<g filter="url(#filter2_i)">
<path d="M3.12799 145.469H2.042C0.914172 145.469 -0.000109543 146.382 -0.000109543 147.508V180.817C-0.000109543 181.943 0.914172 182.856 2.042 182.856H3.12799V145.469Z" fill="#E6E7E9"/>
</g>
<path d="M3.12799 194.201H2.042C0.914172 194.201 -0.000109543 195.114 -0.000109543 196.24V283.538C-0.000109543 284.664 0.914172 285.577 2.042 285.577H3.12799V194.201Z" fill="#E6E7E9"/>
<g filter="url(#filter3_i)">
<path d="M3.12799 194.201H2.042C0.914172 194.201 -0.000109543 195.114 -0.000109543 196.24V283.538C-0.000109543 284.664 0.914172 285.577 2.042 285.577H3.12799V194.201Z" fill="#E6E7E9"/>
</g>
<path fill-rule="evenodd" clip-rule="evenodd" d="M22.2514 67.9929H265.959C267.087 67.9929 268.001 68.9059 268.001 70.0322V503.687C268.001 504.813 267.087 505.726 265.959 505.726H22.2514C21.1236 505.726 20.2093 504.813 20.2093 503.687V70.0322C20.2093 68.9059 21.1236 67.9929 22.2514 67.9929Z" fill="#F2F2F4"/>
<path d="M117.264 519.026H171.823C179.342 519.026 185.437 525.113 185.437 532.622V532.656C185.437 540.164 179.342 546.251 171.823 546.251H117.264C109.745 546.251 103.65 540.164 103.65 532.656V532.622C103.65 525.113 109.745 519.026 117.264 519.026Z" fill="#E7E8E9"/>
<g filter="url(#filter4_ii)">
<path d="M117.264 519.026H171.823C179.342 519.026 185.437 525.113 185.437 532.622V532.656C185.437 540.164 179.342 546.251 171.823 546.251H117.264C109.745 546.251 103.65 540.164 103.65 532.656V532.622C103.65 525.113 109.745 519.026 117.264 519.026Z" fill="#E7E8E9"/>
</g>
<path d="M98.9553 46.5568C101.211 46.5568 103.04 44.7308 103.04 42.4782C103.04 40.2257 101.211 38.3997 98.9553 38.3997C96.6997 38.3997 94.8711 40.2257 94.8711 42.4782C94.8711 44.7308 96.6997 46.5568 98.9553 46.5568Z" fill="#CDD5DD"/>
<g filter="url(#filter5_ii)">
<path d="M98.9553 46.5568C101.211 46.5568 103.04 44.7308 103.04 42.4782C103.04 40.2257 101.211 38.3997 98.9553 38.3997C96.6997 38.3997 94.8711 40.2257 94.8711 42.4782C94.8711 44.7308 96.6997 46.5568 98.9553 46.5568Z" fill="#D3D5D7"/>
</g>
<path d="M123.464 37.4456H165.624C168.255 37.4456 170.388 39.5759 170.388 42.2039V42.6758C170.388 45.3037 168.255 47.4341 165.624 47.4341H123.464C120.832 47.4341 118.699 45.3037 118.699 42.6758V42.2039C118.699 39.5759 120.832 37.4456 123.464 37.4456Z" fill="#D3D5D7"/>
<g filter="url(#filter6_ii)">
<path d="M123.464 37.4456H165.624C168.255 37.4456 170.388 39.5759 170.388 42.2039V42.6758C170.388 45.3037 168.255 47.4341 165.624 47.4341H123.464C120.832 47.4341 118.699 45.3037 118.699 42.6758V42.2039C118.699 39.5759 120.832 37.4456 123.464 37.4456Z" fill="#D3D5D7"/>
</g>
<defs>
<filter id="filter0_ii" x="3.18958" y="-4" width="289.811" height="575" filterUnits="userSpaceOnUse" color-interpolation-filters="sRGB">
<feFlood flood-opacity="0" result="BackgroundImageFix"/>
<feBlend mode="normal" in="SourceGraphic" in2="BackgroundImageFix" result="shape"/>
<feColorMatrix in="SourceAlpha" type="matrix" values="0 0 0 0 0 0 0 0 0 0 0 0 0 0 0 0 0 0 127 0" result="hardAlpha"/>
<feOffset/>
<feGaussianBlur stdDeviation="20"/>
<feComposite in2="hardAlpha" operator="arithmetic" k2="-1" k3="1"/>
<feColorMatrix type="matrix" values="0 0 0 0 1 0 0 0 0 1 0 0 0 0 1 0 0 0 1 0"/>
<feBlend mode="normal" in2="shape" result="effect1_innerShadow"/>
<feColorMatrix in="SourceAlpha" type="matrix" values="0 0 0 0 0 0 0 0 0 0 0 0 0 0 0 0 0 0 127 0" result="hardAlpha"/>
<feOffset dx="8" dy="-4"/>
<feGaussianBlur stdDeviation="7"/>
<feComposite in2="hardAlpha" operator="arithmetic" k2="-1" k3="1"/>
<feColorMatrix type="matrix" values="0 0 0 0 0.806471 0 0 0 0 0.814765 0 0 0 0 0.824902 0 0 0 1 0"/>
<feBlend mode="normal" in2="effect1_innerShadow" result="effect2_innerShadow"/>
</filter>
<filter id="filter1_d" x="1.20703" y="0.587158" width="285.775" height="570.613" filterUnits="userSpaceOnUse" color-interpolation-filters="sRGB">
<feFlood flood-opacity="0" result="BackgroundImageFix"/>
<feColorMatrix in="SourceAlpha" type="matrix" values="0 0 0 0 0 0 0 0 0 0 0 0 0 0 0 0 0 0 127 0"/>
<feOffset/>
<feGaussianBlur stdDeviation="9.5"/>
<feColorMatrix type="matrix" values="0 0 0 0 0.894118 0 0 0 0 0.909804 0 0 0 0 0.929412 0 0 0 1 0"/>
<feBlend mode="normal" in2="BackgroundImageFix" result="effect1_dropShadow"/>
<feBlend mode="normal" in="SourceGraphic" in2="effect1_dropShadow" result="shape"/>
</filter>
<filter id="filter2_i" x="-0.00012207" y="145.469" width="3.1281" height="37.3869" filterUnits="userSpaceOnUse" color-interpolation-filters="sRGB">
<feFlood flood-opacity="0" result="BackgroundImageFix"/>
<feBlend mode="normal" in="SourceGraphic" in2="BackgroundImageFix" result="shape"/>
<feColorMatrix in="SourceAlpha" type="matrix" values="0 0 0 0 0 0 0 0 0 0 0 0 0 0 0 0 0 0 127 0" result="hardAlpha"/>
<feOffset/>
<feGaussianBlur stdDeviation="4.5"/>
<feComposite in2="hardAlpha" operator="arithmetic" k2="-1" k3="1"/>
<feColorMatrix type="matrix" values="0 0 0 0 0.905294 0 0 0 0 0.909804 0 0 0 0 0.914314 0 0 0 1 0"/>
<feBlend mode="normal" in2="shape" result="effect1_innerShadow"/>
</filter>
<filter id="filter3_i" x="-0.00012207" y="194.201" width="3.1281" height="91.3762" filterUnits="userSpaceOnUse" color-interpolation-filters="sRGB">
<feFlood flood-opacity="0" result="BackgroundImageFix"/>
<feBlend mode="normal" in="SourceGraphic" in2="BackgroundImageFix" result="shape"/>
<feColorMatrix in="SourceAlpha" type="matrix" values="0 0 0 0 0 0 0 0 0 0 0 0 0 0 0 0 0 0 127 0" result="hardAlpha"/>
<feOffset/>
<feGaussianBlur stdDeviation="9.5"/>
<feComposite in2="hardAlpha" operator="arithmetic" k2="-1" k3="1"/>
<feColorMatrix type="matrix" values="0 0 0 0 0.905294 0 0 0 0 0.909804 0 0 0 0 0.914314 0 0 0 1 0"/>
<feBlend mode="normal" in2="shape" result="effect1_innerShadow"/>
</filter>
<filter id="filter4_ii" x="103.65" y="518.026" width="81.787" height="29.2246" filterUnits="userSpaceOnUse" color-interpolation-filters="sRGB">
<feFlood flood-opacity="0" result="BackgroundImageFix"/>
<feBlend mode="normal" in="SourceGraphic" in2="BackgroundImageFix" result="shape"/>
<feColorMatrix in="SourceAlpha" type="matrix" values="0 0 0 0 0 0 0 0 0 0 0 0 0 0 0 0 0 0 127 0" result="hardAlpha"/>
<feOffset dy="-1"/>
<feGaussianBlur stdDeviation="0.5"/>
<feComposite in2="hardAlpha" operator="arithmetic" k2="-1" k3="1"/>
<feColorMatrix type="matrix" values="0 0 0 0 0.788235 0 0 0 0 0.819608 0 0 0 0 0.858824 0 0 0 1 0"/>
<feBlend mode="normal" in2="shape" result="effect1_innerShadow"/>
<feColorMatrix in="SourceAlpha" type="matrix" values="0 0 0 0 0 0 0 0 0 0 0 0 0 0 0 0 0 0 127 0" result="hardAlpha"/>
<feOffset dy="1"/>
<feGaussianBlur stdDeviation="0.5"/>
<feComposite in2="hardAlpha" operator="arithmetic" k2="-1" k3="1"/>
<feColorMatrix type="matrix" values="0 0 0 0 1 0 0 0 0 1 0 0 0 0 1 0 0 0 1 0"/>
<feBlend mode="normal" in2="effect1_innerShadow" result="effect2_innerShadow"/>
</filter>
<filter id="filter5_ii" x="94.8711" y="37.3997" width="8.16843" height="10.1571" filterUnits="userSpaceOnUse" color-interpolation-filters="sRGB">
<feFlood flood-opacity="0" result="BackgroundImageFix"/>
<feBlend mode="normal" in="SourceGraphic" in2="BackgroundImageFix" result="shape"/>
<feColorMatrix in="SourceAlpha" type="matrix" values="0 0 0 0 0 0 0 0 0 0 0 0 0 0 0 0 0 0 127 0" result="hardAlpha"/>
<feOffset dy="-1"/>
<feGaussianBlur stdDeviation="0.5"/>
<feComposite in2="hardAlpha" operator="arithmetic" k2="-1" k3="1"/>
<feColorMatrix type="matrix" values="0 0 0 0 1 0 0 0 0 1 0 0 0 0 1 0 0 0 1 0"/>
<feBlend mode="normal" in2="shape" result="effect1_innerShadow"/>
<feColorMatrix in="SourceAlpha" type="matrix" values="0 0 0 0 0 0 0 0 0 0 0 0 0 0 0 0 0 0 127 0" result="hardAlpha"/>
<feOffset dy="1"/>
<feGaussianBlur stdDeviation="0.5"/>
<feComposite in2="hardAlpha" operator="arithmetic" k2="-1" k3="1"/>
<feColorMatrix type="matrix" values="0 0 0 0 0 0 0 0 0 0 0 0 0 0 0 0 0 0 0.5 0"/>
<feBlend mode="normal" in2="effect1_innerShadow" result="effect2_innerShadow"/>
</filter>
<filter id="filter6_ii" x="118.699" y="36.4456" width="51.6899" height="11.4886" filterUnits="userSpaceOnUse" color-interpolation-filters="sRGB">
<feFlood flood-opacity="0" result="BackgroundImageFix"/>
<feBlend mode="normal" in="SourceGraphic" in2="BackgroundImageFix" result="shape"/>
<feColorMatrix in="SourceAlpha" type="matrix" values="0 0 0 0 0 0 0 0 0 0 0 0 0 0 0 0 0 0 127 0" result="hardAlpha"/>
<feOffset dy="-1"/>
<feGaussianBlur stdDeviation="0.5"/>
<feComposite in2="hardAlpha" operator="arithmetic" k2="-1" k3="1"/>
<feColorMatrix type="matrix" values="0 0 0 0 1 0 0 0 0 1 0 0 0 0 1 0 0 0 1 0"/>
<feBlend mode="normal" in2="shape" result="effect1_innerShadow"/>
<feColorMatrix in="SourceAlpha" type="matrix" values="0 0 0 0 0 0 0 0 0 0 0 0 0 0 0 0 0 0 127 0" result="hardAlpha"/>
<feOffset dy="1"/>
<feGaussianBlur stdDeviation="0.25"/>
<feComposite in2="hardAlpha" operator="arithmetic" k2="-1" k3="1"/>
<feColorMatrix type="matrix" values="0 0 0 0 0 0 0 0 0 0 0 0 0 0 0 0 0 0 0.381058 0"/>
<feBlend mode="normal" in2="effect1_innerShadow" result="effect2_innerShadow"/>
</filter>
</defs>
</svg>
